<?xml version="1.0" encoding="UTF-8"?>
<svg id="Layer_2" data-name="Layer 2" xmlns="http://www.w3.org/2000/svg" xmlns:xlink="http://www.w3.org/1999/xlink" viewBox="0 0 90 90.07">
  <defs>
    <style>
      .cls-1 {
        fill: none;
        stroke: #b22024;
      }

      .cls-1, .cls-2 {
        stroke-miterlimit: 10;
        stroke-width: 2px;
      }

      .cls-3 {
        fill: url(#radial-gradient);
      }

      .cls-2 {
        stroke: #bcbec0;
      }

      .cls-2, .cls-4 {
        fill: #f1f2f2;
      }
    </style>
    <radialGradient id="radial-gradient" cx="45" cy="45" fx="36.9" fy="89.26" r="45" gradientUnits="userSpaceOnUse">
      <stop offset="0" stop-color="#f1f2f2" stop-opacity=".5"/>
      <stop offset=".14" stop-color="#e5e7e7" stop-opacity=".44"/>
      <stop offset=".4" stop-color="#c8cacb" stop-opacity=".27"/>
      <stop offset=".77" stop-color="#9a9c9f" stop-opacity="0"/>
      <stop offset=".77" stop-color="#9a9c9f" stop-opacity="0"/>
      <stop offset="1" stop-color="#231f20" stop-opacity=".5"/>
    </radialGradient>
  </defs>
  <g id="Layer_1-2" data-name="Layer 1">
    <g>
      <circle class="cls-4" cx="45" cy="45.07" r="45"/>
      <path class="cls-2" d="m19.82,7.38c2.57,4.72,8.69,17.43,7.52,34.58-1.28,18.85-10.55,31.28-13.81,35.28"/>
      <path class="cls-2" d="m69.02,7.38c-2.4,4.72-8.17,17.41-8.08,35.19.1,20.4,7.83,34.33,10.38,38.55"/>
      <g>
        <path class="cls-1" d="m11.98,67.18c1.84,1.6,3.67,3.21,5.51,4.81,2.45-.34,4.89-.69,7.34-1.03"/>
        <path class="cls-1" d="m10.85,71.14c1.6,1.84,3.2,3.68,4.8,5.52,2.47,0,4.94-.02,7.41-.02"/>
        <path class="cls-1" d="m14.64,62.37c1.84,1.6,3.67,3.21,5.51,4.81,2.45-.34,4.89-.69,7.34-1.03"/>
        <path class="cls-1" d="m16.64,57.56c1.84,1.6,3.67,3.21,5.51,4.81,2.45-.34,4.89-.69,7.34-1.03"/>
        <path class="cls-1" d="m18.24,53.45c2,1.4,4,2.79,6,4.19,2.4-.61,4.79-1.21,7.19-1.82"/>
        <path class="cls-1" d="m19.54,49.49c2.2,1.05,4.4,2.1,6.6,3.16,2.26-.99,4.53-1.98,6.79-2.97"/>
        <path class="cls-1" d="m18.24,53.45c2,1.4,4,2.79,6,4.19,2.4-.61,4.79-1.21,7.19-1.82"/>
        <path class="cls-1" d="m20.51,44.25c2.2,1.05,4.4,2.1,6.6,3.16,2.26-.99,4.53-1.98,6.79-2.97"/>
        <path class="cls-1" d="m20.79,39.01c2.2,1.05,4.4,2.1,6.6,3.16,2.26-.99,4.53-1.98,6.79-2.97"/>
        <path class="cls-1" d="m21.35,34.17c2.26.92,4.51,1.84,6.77,2.77,2.2-1.12,4.41-2.24,6.61-3.36"/>
        <path class="cls-1" d="m21.46,29.68c2.37.59,4.73,1.18,7.1,1.77,2.02-1.42,4.04-2.84,6.06-4.27"/>
        <path class="cls-1" d="m19.66,24.44c2.37.59,4.73,1.18,7.1,1.77,2.02-1.42,4.04-2.84,6.06-4.27"/>
        <path class="cls-1" d="m18.69,20.81c2.44.06,4.87.12,7.31.17,1.66-1.83,3.32-3.66,4.98-5.49"/>
        <path class="cls-1" d="m16.92,16.35c2.44.06,4.87.12,7.31.17,1.66-1.83,3.32-3.66,4.98-5.49"/>
        <path class="cls-1" d="m15.31,12.69c2.44.06,4.87.12,7.31.17,1.66-1.83,3.32-3.66,4.98-5.49"/>
        <path class="cls-1" d="m63.44,79.23c2.44.06,4.87.12,7.31.17,1.66-1.83,3.32-3.66,4.98-5.49"/>
        <path class="cls-1" d="m61.38,74.76c2.44.12,4.87.23,7.31.35,1.7-1.79,3.41-3.58,5.11-5.37"/>
        <path class="cls-1" d="m59.73,70.28c2.42.32,4.84.63,7.25.95,1.84-1.64,3.69-3.29,5.53-4.93"/>
        <path class="cls-1" d="m58.04,64.5c2.36.62,4.71,1.25,7.07,1.87,2.04-1.39,4.08-2.79,6.12-4.18"/>
        <path class="cls-1" d="m56.79,59.81c2.32.76,4.64,1.51,6.95,2.27,2.12-1.28,4.23-2.55,6.35-3.83"/>
        <path class="cls-1" d="m56.79,54.4c2.32.76,4.64,1.51,6.95,2.27,2.12-1.28,4.23-2.55,6.35-3.83"/>
        <path class="cls-1" d="m55.27,48.78c2.28.88,4.55,1.75,6.83,2.63,2.18-1.16,4.36-2.33,6.54-3.49"/>
        <path class="cls-1" d="m55.26,43.43c2.2,1.05,4.4,2.09,6.61,3.14,2.26-.99,4.52-1.99,6.79-2.98"/>
        <path class="cls-1" d="m55.26,38.2c2.2,1.05,4.4,2.09,6.61,3.14,2.26-.99,4.52-1.99,6.79-2.98"/>
        <path class="cls-1" d="m55.35,31.93c2.01,1.37,4.03,2.75,6.04,4.12,2.39-.63,4.78-1.27,7.17-1.9"/>
        <path class="cls-1" d="m56.47,26.82c1.92,1.51,3.83,3.01,5.75,4.52,2.43-.47,4.85-.94,7.28-1.41"/>
        <path class="cls-1" d="m56.93,21.7c1.92,1.51,3.83,3.01,5.75,4.52,2.43-.47,4.85-.94,7.28-1.41"/>
        <path class="cls-1" d="m58.2,16.3c1.85,1.59,3.7,3.17,5.55,4.76,2.44-.37,4.89-.73,7.33-1.1"/>
        <path class="cls-1" d="m59.83,11.08c1.77,1.68,3.54,3.35,5.31,5.03,2.46-.25,4.92-.49,7.38-.74"/>
        <path class="cls-1" d="m62.55,4.62c1.37,2.01,2.75,4.03,4.12,6.04,2.46.28,4.91.56,7.37.84"/>
      </g>
      <circle class="cls-3" cx="45" cy="45" r="45"/>
    </g>
  </g>
</svg>