<?xml version="1.0" encoding="UTF-8"?>
<svg id="Layer_2" data-name="Layer 2" xmlns="http://www.w3.org/2000/svg" xmlns:xlink="http://www.w3.org/1999/xlink" viewBox="0 0 93 93">
  <defs>
    <style>
      .cls-1, .cls-2 {
        fill: #fff;
      }

      .cls-3 {
        fill: #545456;
        opacity: .88;
      }

      .cls-4 {
        fill: #939598;
        opacity: .81;
      }

      .cls-5 {
        opacity: .31;
      }

      .cls-5, .cls-6 {
        stroke: #231f20;
        stroke-miterlimit: 10;
        stroke-width: 3px;
      }

      .cls-5, .cls-7 {
        fill: #231f20;
      }

      .cls-6 {
        fill: url(#Daisy);
      }

      .cls-8 {
        fill: none;
      }

      .cls-9 {
        fill: #d1d3d4;
      }

      .cls-2 {
        opacity: .65;
      }
    </style>
    <pattern id="Daisy" x="0" y="0" width="99" height="99" patternTransform="translate(4.28 -216.69)" patternUnits="userSpaceOnUse" viewBox="0 0 99 99">
      <g>
        <rect class="cls-8" x="0" width="99" height="99"/>
        <rect class="cls-7" x="85" y="82" width="99" height="99"/>
        <g>
          <rect class="cls-7" x="-14" y="82" width="99" height="99"/>
          <g>
            <g>
              <path class="cls-9" d="m76.08,114.39s-11.66-16.47-7.44-27.48l1.51-.12,1.15.59,1.4-.48,1.63-.36s4.71,6.31,2.81,27.49c0,0-.92-.47-1.05.36Z"/>
              <path class="cls-9" d="m79.06,113.54s-3.44-19.43,4.74-27.12l1.37.56.76,1.02,1.42.21,1.57.41s1.53,7.56-8.79,25.09c0,0-.61-.81-1.06-.15Z"/>
              <path class="cls-9" d="m81.41,115.62s4.06-16.05,13.97-18.32l.99,1.01.29,1.09,1.16.76,1.22.98s-1.41,6.33-16.76,15.06c0,0-.23-.87-.87-.57Z"/>
              <path class="cls-9" d="m72.91,114.96s-16.68-10.54-16.86-21.77l1.34-.64,1.26.13,1.11-.91,1.36-.88s6.62,3.96,12.63,23.39c0,0-1.01-.1-.83.68Z"/>
            </g>
            <g>
              <path class="cls-1" d="m76.19,114.28s-9.87-13.42-6.56-22.21l1.24-.08.95.49,1.15-.36,1.34-.26s3.99,5.15,2.73,22.15c0,0-.76-.39-.86.27Z"/>
              <path class="cls-1" d="m79.25,113.51s-1.34-13.64,4.29-19.47l.86.33.44.69.91.08.99.22s.65,5.3-6.81,18.21c0,0-.35-.55-.68-.06Z"/>
              <path class="cls-1" d="m73.95,115.08s-14.15-8.79-14.34-18.18l1.13-.53,1.07.1.94-.76,1.15-.74s5.62,3.3,10.77,19.55c0,0-.86-.08-.7.57Z"/>
            </g>
          </g>
        </g>
        <path class="cls-9" d="m-17.59,115.62s4.06-16.05,13.97-18.32l.99,1.01.29,1.09,1.16.76,1.22.98s-1.41,6.33-16.76,15.06c0,0-.23-.87-.87-.57Z"/>
        <g>
          <rect class="cls-7" x="85" y="-17" width="99" height="99"/>
          <g>
            <g>
              <path class="cls-9" d="m116.39,45.62s-17.89-9.32-19.18-21.04l1.29-.8h1.29l1.03-1.06,1.29-1.07s7.08,3.46,15.06,23.17c0,0-1.03,0-.77.8Z"/>
              <path class="cls-9" d="m115.4,54.4s-5.77,18.87-16.55,22l-.96-1.12-.21-1.25-1.17-.83-1.21-1.08s2.07-7.43,19.24-18.35c0,0,.17,1,.88.62Z"/>
              <path class="cls-9" d="m112.18,53.46s-13.47,14.42-24.53,12.51l-.37-1.43.36-1.22-.69-1.26-.62-1.5s5.12-5.77,25.34-8.04c0,0-.29.97.52.95Z"/>
              <path class="cls-9" d="m113.21,49.19s-18.43-7.05-27.53-.48l.29,1.46.86.93-.07,1.43.1,1.62s7.13,2.94,26.3-3.89c0,0-.68-.75.05-1.07Z"/>
              <path class="cls-9" d="m113.83,47.58s-19.65-1.75-24.95-11.65l.9-1.18,1.18-.46.57-1.32.8-1.41s7.7.49,21.92,15.04c0,0-.94.37-.43.99Z"/>
            </g>
            <g>
              <path class="cls-1" d="m114.81,47.21s-16.6-1.35-21.07-9.61l.76-.99.99-.4.48-1.11.68-1.19s6.5.37,18.51,12.46c0,0-.8.32-.36.83Z"/>
              <path class="cls-1" d="m113.54,50.21s-15.39,6.38-23.13,1.06l.22-1.22.7-.81-.08-1.2.07-1.37s5.95-2.64,22.16,2.64c0,0-.56.65.06.9Z"/>
              <path class="cls-1" d="m113.68,52.87s-10.78,12.7-20.09,11.51l-.36-1.19.25-1.04-.62-1.04-.56-1.24s4.09-5.07,20.92-7.77c0,0-.21.83.46.78Z"/>
            </g>
          </g>
          <g>
            <g>
              <path class="cls-9" d="m120.75,96.48s-17.78,8.56-27.4,2.76l.17-1.47.77-1-.19-1.42-.03-1.62s6.86-3.52,26.53,1.7c0,0-.62.8.14,1.06Z"/>
              <path class="cls-9" d="m119.25,93.48s-19.73-.12-25.83-9.54l.8-1.25,1.14-.56.46-1.36.68-1.47s7.71-.15,23.09,13.16c0,0-.91.45-.35,1.02Z"/>
            </g>
            <g>
              <path class="cls-1" d="m120.71,94.19s-16.64.69-22.08-6.96l.63-1.07.94-.52.34-1.15.53-1.26s6.5-.43,19.9,10.1c0,0-.75.41-.26.87Z"/>
              <path class="cls-1" d="m120.68,96.8s-14.49,8.21-22.83,3.89l.07-1.24.6-.89-.23-1.18-.1-1.36s5.58-3.35,22.31-.09c0,0-.48.71.17.89Z"/>
            </g>
          </g>
        </g>
        <g>
          <rect class="cls-7" x="-14" y="-17" width="99" height="99"/>
          <g>
            <g>
              <g>
                <path class="cls-9" d="m17.39,45.62S-.5,36.3-1.79,24.58l1.29-.8H.78l1.03-1.06,1.29-1.07s7.08,3.46,15.06,23.17c0,0-1.03,0-.77.8Z"/>
                <path class="cls-9" d="m19.65,43.5s-11.94-15.71-8.19-26.29l1.47-.13,1.14.56,1.36-.47,1.58-.36s4.82,6.02,3.65,26.33c0,0-.91-.45-1.02.35Z"/>
                <path class="cls-9" d="m22.7,44.28s-3.72-16.13,4.05-22.68l1.34.44.75.83,1.38.14,1.53.31s1.64,6.27-8.02,21.05c0,0-.6-.67-1.04-.11Z"/>
                <path class="cls-9" d="m25.25,47.01s5.05-19.08,15.7-22.62l1,1.08.26,1.24,1.2.78,1.25,1.03s-1.78,7.5-18.52,19.07c0,0-.21-.99-.9-.59Z"/>
                <path class="cls-9" d="m26.8,49.67s12.91-14.93,24.04-13.44l.43,1.42-.31,1.23.74,1.23.67,1.48s-4.9,5.96-25.01,9.01c0,0,.25-.98-.55-.92Z"/>
                <path class="cls-9" d="m27.14,51.83s18.67-6.51,27.09.18l-.41,1.42-.92.9-.05,1.41-.23,1.59s-7.24,2.72-25.52-4.45c0,0,.73-.72.04-1.06Z"/>
                <path class="cls-9" d="m25.88,54.7s19.71,1,25.38,10.69l-.85,1.21-1.16.51-.52,1.34-.75,1.44s-7.71-.2-22.48-14.18c0,0,.93-.41.39-1Z"/>
                <path class="cls-9" d="m24.82,56.22s16.23,11.22,15.94,22.45l-1.36.58-1.26-.18-1.14.87-1.4.83s-6.45-4.23-11.64-23.9c0,0,1,.14.86-.65Z"/>
                <path class="cls-9" d="m22,58.36s10.26,15.92,5.86,26.65l-1.42.13-1.05-.57-1.34.47-1.55.36s-4.17-6.1-1.51-26.69c0,0,.84.45,1-.36Z"/>
                <path class="cls-9" d="m20.33,59.48s-1.77,18.17-11.85,24.09l-1.2-.69-.47-1.03-1.34-.38-1.44-.58s.5-7.09,15.29-21.7c0,0,.38.82,1.01.28Z"/>
                <path class="cls-9" d="m16.4,54.4S10.62,73.27-.16,76.4l-.96-1.12-.21-1.25-1.17-.83-1.21-1.08s2.07-7.43,19.24-18.35c0,0,.17,1,.88.62Z"/>
                <path class="cls-9" d="m13.18,53.46s-13.47,14.42-24.53,12.51l-.37-1.43.36-1.22-.69-1.26-.62-1.5s5.12-5.77,25.34-8.04c0,0-.29.97.52.95Z"/>
                <path class="cls-9" d="m14.21,49.19s-18.43-7.05-27.53-.48l.29,1.46.86.93-.07,1.43.1,1.62s7.13,2.94,26.3-3.89c0,0-.68-.75.05-1.07Z"/>
                <path class="cls-9" d="m14.83,47.58s-19.65-1.75-24.95-11.65l.9-1.18,1.18-.46.57-1.32.8-1.41s7.7.49,21.92,15.04c0,0-.94.37-.43.99Z"/>
              </g>
              <g>
                <path class="cls-1" d="m17.44,45.47S2.53,38.04,1.45,28.71l1.07-.64h1.07l.86-.85,1.07-.85s5.9,2.76,12.55,18.45c0,0-.86,0-.64.63Z"/>
                <path class="cls-1" d="m19.81,43.38s-7.42-11.52-5.09-19.28l.91-.09.71.41.84-.34.98-.26s3,4.42,2.27,19.31c0,0-.57-.33-.63.26Z"/>
                <path class="cls-1" d="m22.86,44.07s-1.6-12.13,1.74-17.06l.57.33.32.63.59.11.66.24s.7,4.72-3.44,15.83c0,0-.26-.5-.44-.08Z"/>
                <path class="cls-1" d="m15.81,47.21s-16.6-1.35-21.07-9.61l.76-.99.99-.4.48-1.11.68-1.19s6.5.37,18.51,12.46c0,0-.8.32-.36.83Z"/>
                <path class="cls-1" d="m24.18,55.99s14.51,8.18,15.1,17.55l-1.1.58-1.07-.05-.9.8-1.11.79s-5.75-3.05-11.59-19.07c0,0,.86.04.67-.6Z"/>
                <path class="cls-1" d="m22.25,58.5s6.29,14.07,3.12,17.99l-.93-.63-.67-.83-.89-.39-1.02-.55s-2.56-5.51-.28-15.87c0,0,.54.67.67.29Z"/>
                <path class="cls-1" d="m19.61,60.31s-2.59,18.14-8.94,20.37l-.63-1.18-.19-1.24-.74-.91-.78-1.16s.9-7.16,10.72-16.56c0,0,.15,1,.56.69Z"/>
                <path class="cls-1" d="m26.38,54.48s15.49.54,18.71,6.75l-.83.78-.99.34-.59.87-.78.93s-6.09-.08-15.96-9.02c0,0,.79-.27.44-.65Z"/>
                <path class="cls-1" d="m14.54,50.21s-15.39,6.38-23.13,1.06l.22-1.22.7-.81-.08-1.2.07-1.37s5.95-2.64,22.16,2.64c0,0-.56.65.06.9Z"/>
                <path class="cls-1" d="m14.68,52.87s-10.78,12.7-20.09,11.51l-.36-1.19.25-1.04-.62-1.04-.56-1.24s4.09-5.07,20.92-7.77c0,0-.21.83.46.78Z"/>
                <path class="cls-1" d="m16.58,54.67s-3.79,16.22-12.62,19.41l-.87-.89-.25-1.05-1.02-.64-1.07-.85s1.32-6.37,15.07-16.46c0,0,.2.84.76.48Z"/>
                <path class="cls-1" d="m25.59,45.7s5.22-11.06,10.69-13.4l.3.59-.07.7.44.41.42.55s-1.96,4.35-11.46,11.46c0,0,.05-.56-.33-.31Z"/>
                <path class="cls-1" d="m27.01,48.54s10.38-6.48,16.24-5.49l-.07.66-.44.55.15.59.06.7s-4,2.59-15.84,3.43c0,0,.35-.45-.11-.44Z"/>
                <path class="cls-1" d="m28.31,51.45s12.23.17,16.63,4.17l-.41.52-.67.23-.2.57-.33.62s-4.77.02-15.17-5.68c0,0,.53-.18.14-.43Z"/>
              </g>
            </g>
            <g>
              <polygon class="cls-3" points="15.88 45.34 12.78 48.55 12.32 51.96 14.91 57.31 20.22 60.14 26.78 59.24 29.49 52.46 28.35 46.08 25.25 42.33 20.08 42.33 15.88 45.34"/>
              <polygon class="cls-4" points="15.96 45.61 13.14 48.52 13.14 51.92 15.49 56.77 20.2 59.68 25.86 59.2 29.15 52.4 27.74 46.58 24.91 43.18 20.2 43.18 15.96 45.61"/>
              <polygon class="cls-3" points="25.31 57.09 24.4 57.54 24.29 56.41 25.31 57.09"/>
              <polygon class="cls-3" points="23.62 58.32 22.62 58.52 22.81 57.4 23.62 58.32"/>
              <polygon class="cls-3" points="22.03 58.44 21.04 58.63 21.23 57.51 22.03 58.44"/>
              <polygon class="cls-3" points="21.01 58.89 20.02 59.09 20.21 57.97 21.01 58.89"/>
              <polygon class="cls-3" points="22.83 59.56 21.83 59.76 22.02 58.64 22.83 59.56"/>
              <polygon class="cls-3" points="24.18 59.11 23.19 59.31 23.38 58.19 24.18 59.11"/>
              <polygon class="cls-3" points="20.11 56.62 19.12 56.82 19.31 55.71 20.11 56.62"/>
              <polygon class="cls-3" points="22.37 56.17 21.38 56.37 21.57 55.25 22.37 56.17"/>
              <polygon class="cls-3" points="26.34 57.64 25.34 57.84 25.53 56.72 26.34 57.64"/>
              <polygon class="cls-3" points="26.67 56.21 25.85 56.8 25.55 55.71 26.67 56.21"/>
              <polygon class="cls-3" points="27.06 54.45 26.52 55.31 25.84 54.4 27.06 54.45"/>
              <polygon class="cls-3" points="27.63 52.87 27.09 53.72 26.4 52.82 27.63 52.87"/>
              <polygon class="cls-3" points="27.88 49.62 28.01 50.62 26.91 50.36 27.88 49.62"/>
              <polygon class="cls-3" points="28.49 51.62 28.36 52.62 27.36 52.07 28.49 51.62"/>
              <polygon class="cls-3" points="27.49 48.04 27.78 49.01 26.65 48.93 27.49 48.04"/>
              <polygon class="cls-3" points="25.96 47.1 26.59 47.88 25.51 48.24 25.96 47.1"/>
              <polygon class="cls-3" points="24.71 50.49 25.35 51.28 24.27 51.63 24.71 50.49"/>
              <polygon class="cls-3" points="23.13 51.51 23.77 52.29 22.68 52.65 23.13 51.51"/>
              <polygon class="cls-3" points="22.86 49.4 23.5 50.19 22.42 50.54 22.86 49.4"/>
              <polygon class="cls-3" points="24.64 46.04 25.28 46.83 24.2 47.19 24.64 46.04"/>
              <polygon class="cls-3" points="24.66 44.29 25.5 44.86 24.56 45.51 24.66 44.29"/>
              <polygon class="cls-3" points="26.56 45.17 27.22 45.94 26.15 46.32 26.56 45.17"/>
              <polygon class="cls-3" points="23.23 43.53 24.15 43.96 23.33 44.75 23.23 43.53"/>
              <polygon class="cls-3" points="21.76 43.38 22.77 43.43 22.31 44.47 21.76 43.38"/>
              <polygon class="cls-3" points="21.5 45.85 22.51 45.9 22.05 46.94 21.5 45.85"/>
              <polygon class="cls-3" points="19.84 44.32 20.85 44.37 20.4 45.41 19.84 44.32"/>
              <polygon class="cls-3" points="20.29 43.53 21.31 43.58 20.85 44.62 20.29 43.53"/>
              <polygon class="cls-3" points="18.37 44.55 19.38 44.6 18.93 45.64 18.37 44.55"/>
              <polygon class="cls-3" points="15.95 46.93 16.7 46.25 17.11 47.31 15.95 46.93"/>
              <polygon class="cls-3" points="18.78 46.36 19.53 45.68 19.94 46.75 18.78 46.36"/>
              <polygon class="cls-3" points="17.26 45.29 18.16 44.84 18.27 45.97 17.26 45.29"/>
              <polygon class="cls-3" points="14.87 48.13 15.51 47.34 16.08 48.32 14.87 48.13"/>
              <polygon class="cls-3" points="13.51 49.49 14.15 48.7 14.72 49.68 13.51 49.49"/>
              <polygon class="cls-3" points="14.96 49.94 15.25 48.97 16.15 49.66 14.96 49.94"/>
              <polygon class="cls-3" points="14.83 51.61 15.12 50.64 16.02 51.33 14.83 51.61"/>
              <polygon class="cls-3" points="13.59 51.84 13.88 50.87 14.78 51.56 13.59 51.84"/>
              <polygon class="cls-3" points="16.02 54.32 16.01 53.23 17.24 53.66 16.02 54.32"/>
              <polygon class="cls-3" points="14.43 53.75 14.43 52.66 15.65 53.09 14.43 53.75"/>
              <polygon class="cls-3" points="17.53 48.13 17.83 47.08 18.9 47.79 17.53 48.13"/>
              <polygon class="cls-3" points="16.23 56.06 16.04 54.98 17.32 55.22 16.23 56.06"/>
              <polygon class="cls-3" points="15.89 57.42 15.7 56.34 16.98 56.58 15.89 57.42"/>
              <polygon class="cls-3" points="17.48 55.72 17.28 54.64 18.57 54.88 17.48 55.72"/>
              <polygon class="cls-3" points="17.85 57.29 17.24 56.35 18.52 56.12 17.85 57.29"/>
              <polygon class="cls-3" points="19.2 58.59 18.58 57.66 19.87 57.43 19.2 58.59"/>
              <polygon class="cls-3" points="27.28 51.16 27.14 52.17 26.14 51.63 27.28 51.16"/>
              <polygon class="cls-3" points="25.47 52.41 25.33 53.41 24.34 52.87 25.47 52.41"/>
              <polygon class="cls-3" points="25.53 58.67 24.71 59.27 24.42 58.17 25.53 58.67"/>
              <polygon class="cls-3" points="24.41 55.53 23.59 56.12 23.29 55.03 24.41 55.53"/>
              <polygon class="cls-3" points="22.6 52.14 21.78 52.73 21.48 51.63 22.6 52.14"/>
              <polygon class="cls-3" points="24.97 54.29 24.15 54.88 23.86 53.78 24.97 54.29"/>
              <polygon class="cls-3" points="23.16 53.83 22.34 54.43 22.05 53.33 23.16 53.83"/>
            </g>
          </g>
          <g>
            <g>
              <g>
                <path class="cls-9" d="m76.08,15.39s-11.66-16.47-7.44-27.48l1.51-.12,1.15.59,1.4-.48,1.63-.36s4.71,6.31,2.81,27.49c0,0-.92-.47-1.05.36Z"/>
                <path class="cls-9" d="m79.06,14.54s-3.44-19.43,4.74-27.12l1.37.56.76,1.02,1.42.21,1.57.41s1.53,7.56-8.79,25.09c0,0-.61-.81-1.06-.15Z"/>
                <path class="cls-9" d="m81.41,16.62S85.48.58,95.38-1.7l.99,1.01.29,1.09,1.16.76,1.22.98s-1.41,6.33-16.76,15.06c0,0-.23-.87-.87-.57Z"/>
                <path class="cls-9" d="m82.43,20.22s13.21-14.66,24.3-12.94l.4,1.42-.34,1.22.71,1.25.64,1.49s-5.02,5.86-25.19,8.5c0,0,.27-.98-.54-.93Z"/>
                <path class="cls-9" d="m82.6,23.29s18.3-7.38,27.52-.97l-.27,1.46-.84.95.09,1.43-.07,1.62s-7.08,3.06-26.36-3.42c0,0,.67-.76-.07-1.07Z"/>
                <path class="cls-9" d="m81.92,25.38s19.58,2.74,24.01,12.54l-1.01,1.08-1.23.38-.69,1.24-.94,1.31s-7.69-.89-20.67-15.62c0,0,.98-.31.52-.93Z"/>
                <path class="cls-9" d="m79.48,27.35s17.07,9.89,17.69,21.11l-1.31.68-1.26-.08-1.07.95-1.33.94s-6.77-3.7-13.51-22.89c0,0,1.01.06.8-.71Z"/>
                <path class="cls-9" d="m77.85,28.21s9.3,17.4,3.92,27.26l-1.48-.11-1.04-.73-1.41.25-1.62.1s-3.81-6.71.57-26.58c0,0,.83.58,1.06-.19Z"/>
                <path class="cls-9" d="m74.36,28.83s1.85,18.86-6.97,26.38l-1.33-.54-.67-.98-1.4-.19-1.54-.39s-.92-7.33,10.86-24.43c0,0,.54.78,1.05.14Z"/>
                <path class="cls-9" d="m72.36,29.06s-9.88,15.35-21.55,16.02l-.75-1.16.05-1.13-1.02-.95-1.01-1.17s3.68-6.08,23.52-12.31c0,0-.04.9.77.71Z"/>
                <path class="cls-9" d="m71.18,22.75s-13.76,14.15-24.78,12.01l-.34-1.44.38-1.21-.67-1.27-.58-1.51s5.24-5.66,25.5-7.53c0,0-.31.97.5.95Z"/>
                <path class="cls-9" d="m68.75,20.44s-18.57,6.67-27.54-.09l.32-1.45.87-.92-.04-1.44.14-1.61s7.19-2.79,26.21,4.42c0,0-.7.74.03,1.08Z"/>
                <path class="cls-9" d="m71.62,17.12s-13.17-14.69-24.27-13.01l-.4,1.43.34,1.22-.72,1.24-.65,1.49s5,5.87,25.17,8.56c0,0-.27-.98.53-.93Z"/>
                <path class="cls-9" d="m72.91,15.96S56.22,5.42,56.04-5.8l1.34-.64,1.26.13,1.11-.91,1.36-.88s6.62,3.96,12.63,23.39c0,0-1.01-.1-.83.68Z"/>
              </g>
              <g>
                <path class="cls-1" d="m76.19,15.28s-9.87-13.42-6.56-22.21l1.24-.08.95.49,1.15-.36,1.34-.26s3.99,5.15,2.73,22.15c0,0-.76-.39-.86.27Z"/>
                <path class="cls-1" d="m79.25,14.51s-1.34-13.64,4.29-19.47l.86.33.44.69.91.08.99.22s.65,5.3-6.81,18.21c0,0-.35-.55-.68-.06Z"/>
                <path class="cls-1" d="m81.65,16.52s4.12-11.52,9.34-14.38l.36.56v.7l.48.37.47.51s-1.53,4.52-10.29,12.51c0,0,0-.56-.36-.28Z"/>
                <path class="cls-1" d="m73.95,16.08s-14.15-8.79-14.34-18.18l1.13-.53,1.07.1.94-.76,1.15-.74s5.62,3.3,10.77,19.54c0,0-.86-.08-.7.57Z"/>
                <path class="cls-1" d="m77.38,27.71s9.17,13.91,5.41,22.51h-1.25s-.93-.52-.93-.52l-1.17.3-1.35.19s-3.72-5.35-1.59-22.26c0,0,.74.43.88-.23Z"/>
                <path class="cls-1" d="m74.51,29.07s-.84,15.39-5.45,17.43l-.54-.98-.22-1.05-.61-.75-.65-.96s.24-6.07,7.01-14.25c0,0,.17.84.46.56Z"/>
                <path class="cls-1" d="m71.34,29.48s-10.59,14.95-17.26,14.03l-.02-1.34.4-1.19-.24-1.15-.17-1.39s4.07-5.96,17.11-9.83c0,0-.32.96.19.87Z"/>
                <path class="cls-1" d="m80.03,27.39s13.53,7.56,13.55,14.55l-1.1.31-1.03-.15-.92.5-1.12.47s-5.37-2.86-10.07-15.31c0,0,.83.12.69-.37Z"/>
                <path class="cls-1" d="m71.45,18.17s-16.6-1.36-21.06-9.62l.76-.99,1-.4.48-1.1.68-1.19s6.5.37,18.5,12.47c0,0-.8.32-.36.83Z"/>
                <path class="cls-1" d="m70.36,20.6s-15.39,6.37-23.13,1.05l.23-1.23.7-.81-.07-1.2.07-1.37s5.95-2.64,22.16,2.65c0,0-.57.65.06.9Z"/>
                <path class="cls-1" d="m71.22,23.07s-10.79,12.69-20.1,11.5l-.36-1.19.26-1.04-.62-1.04-.56-1.25s4.09-5.07,20.92-7.75c0,0-.21.83.46.78Z"/>
                <path class="cls-1" d="m83.34,19.21s9.7-7.45,15.63-7.04v.66l-.38.6.2.57.12.69s-3.73,2.97-15.43,4.95c0,0,.3-.48-.15-.43Z"/>
                <path class="cls-1" d="m83.3,22.39s12.19-1.02,16.96,2.54l-.36.56-.64.29-.14.59-.27.64s-4.74.48-15.65-4.18c0,0,.52-.24.11-.44Z"/>
                <path class="cls-1" d="m83.13,25.57s10.8,5.74,12.88,11.31l-.6.27-.7-.1-.43.42-.57.4s-4.25-2.17-10.9-11.99c0,0,.56.08.32-.31Z"/>
              </g>
            </g>
            <g>
              <polygon class="cls-3" points="74.86 14.46 70.64 15.89 68.68 18.72 68.53 24.66 71.96 29.61 78.21 31.8 83.72 27 85.62 20.81 84.57 16.06 79.98 13.69 74.86 14.46"/>
              <polygon class="cls-4" points="74.82 14.73 70.97 16.03 69.42 19.05 69.29 24.44 72.15 29.18 77.41 31.34 83.44 26.8 84.85 20.98 83.89 16.66 79.7 14.51 74.82 14.73"/>
              <polygon class="cls-3" points="77.88 29.21 76.87 29.2 77.29 28.14 77.88 29.21"/>
              <polygon class="cls-3" points="75.81 29.54 74.84 29.26 75.52 28.35 75.81 29.54"/>
              <polygon class="cls-3" points="74.35 28.91 73.38 28.64 74.06 27.73 74.35 28.91"/>
              <polygon class="cls-3" points="73.24 28.85 72.27 28.57 72.95 27.66 73.24 28.85"/>
              <polygon class="cls-3" points="74.54 30.28 73.57 30 74.25 29.09 74.54 30.28"/>
              <polygon class="cls-3" points="75.96 30.5 74.98 30.22 75.66 29.31 75.96 30.5"/>
              <polygon class="cls-3" points="73.47 26.43 72.5 26.15 73.17 25.24 73.47 26.43"/>
              <polygon class="cls-3" points="75.69 27.06 74.71 26.78 75.39 25.87 75.69 27.06"/>
              <polygon class="cls-3" points="78.54 30.17 77.57 29.9 78.25 28.99 78.54 30.17"/>
              <polygon class="cls-3" points="79.49 29.05 78.49 29.2 78.73 28.09 79.49 29.05"/>
              <polygon class="cls-3" points="80.65 27.67 79.78 28.19 79.58 27.07 80.65 27.67"/>
              <polygon class="cls-3" points="81.87 26.52 81 27.04 80.81 25.92 81.87 26.52"/>
              <polygon class="cls-3" points="83.58 23.74 83.24 24.69 82.38 23.96 83.58 23.74"/>
              <polygon class="cls-3" points="83.21 25.8 82.64 26.63 82 25.69 83.21 25.8"/>
              <polygon class="cls-3" points="83.96 22.17 83.77 23.16 82.8 22.57 83.96 22.17"/>
              <polygon class="cls-3" points="83.02 20.62 83.23 21.61 82.11 21.43 83.02 20.62"/>
              <polygon class="cls-3" points="80.37 23.07 80.57 24.06 79.45 23.88 80.37 23.07"/>
              <polygon class="cls-3" points="78.49 23.25 78.7 24.24 77.58 24.06 78.49 23.25"/>
              <polygon class="cls-3" points="79.22 21.26 79.42 22.25 78.3 22.07 79.22 21.26"/>
              <polygon class="cls-3" points="82.34 19.09 82.54 20.08 81.42 19.9 82.34 19.09"/>
              <polygon class="cls-3" points="83.15 17.53 83.64 18.42 82.51 18.57 83.15 17.53"/>
              <polygon class="cls-3" points="84.45 19.18 84.68 20.16 83.55 20.01 84.45 19.18"/>
              <polygon class="cls-3" points="82.23 16.2 82.85 17 81.76 17.34 82.23 16.2"/>
              <polygon class="cls-3" points="80.99 15.39 81.87 15.9 80.98 16.62 80.99 15.39"/>
              <polygon class="cls-3" points="79.63 17.48 80.5 17.98 79.62 18.7 79.63 17.48"/>
              <polygon class="cls-3" points="78.85 15.36 79.73 15.87 78.85 16.58 78.85 15.36"/>
              <polygon class="cls-3" points="79.62 14.86 80.5 15.37 79.61 16.08 79.62 14.86"/>
              <polygon class="cls-3" points="77.44 14.89 78.32 15.39 77.44 16.11 77.44 14.89"/>
              <polygon class="cls-3" points="74.2 15.89 75.18 15.64 75.06 16.77 74.2 15.89"/>
              <polygon class="cls-3" points="76.98 16.69 77.96 16.43 77.83 17.56 76.98 16.69"/>
              <polygon class="cls-3" points="76.11 15.04 77.12 15.05 76.71 16.11 76.11 15.04"/>
              <polygon class="cls-3" points="72.69 16.48 73.62 16.06 73.68 17.2 72.69 16.48"/>
              <polygon class="cls-3" points="70.86 17.06 71.79 16.65 71.85 17.79 70.86 17.06"/>
              <polygon class="cls-3" points="71.94 18.12 72.64 17.39 73.13 18.42 71.94 18.12"/>
              <polygon class="cls-3" points="71.06 19.55 71.77 18.82 72.25 19.85 71.06 19.55"/>
              <polygon class="cls-3" points="69.85 19.18 70.56 18.45 71.04 19.48 69.85 19.18"/>
              <polygon class="cls-3" points="70.88 22.5 71.38 21.53 72.27 22.47 70.88 22.5"/>
              <polygon class="cls-3" points="69.73 21.28 70.23 20.3 71.12 21.25 69.73 21.28"/>
              <polygon class="cls-3" points="75.06 17.69 75.81 16.89 76.43 18.01 75.06 17.69"/>
              <polygon class="cls-3" points="70.28 24.15 70.6 23.1 71.63 23.9 70.28 24.15"/>
              <polygon class="cls-3" points="69.36 25.2 69.68 24.15 70.71 24.95 69.36 25.2"/>
              <polygon class="cls-3" points="71.54 24.42 71.86 23.37 72.89 24.17 71.54 24.42"/>
              <polygon class="cls-3" points="71.16 25.98 71.04 24.87 72.29 25.25 71.16 25.98"/>
              <polygon class="cls-3" points="71.76 27.76 71.64 26.65 72.89 27.03 71.76 27.76"/>
              <polygon class="cls-3" points="82.34 24.84 81.76 25.67 81.12 24.74 82.34 24.84"/>
              <polygon class="cls-3" points="80.16 25.12 79.58 25.95 78.94 25.02 80.16 25.12"/>
              <polygon class="cls-3" points="77.36 30.73 76.36 30.88 76.6 29.77 77.36 30.73"/>
              <polygon class="cls-3" points="77.79 27.41 76.79 27.57 77.03 26.46 77.79 27.41"/>
              <polygon class="cls-3" points="77.73 23.57 76.73 23.72 76.97 22.61 77.73 23.57"/>
              <polygon class="cls-3" points="78.86 26.57 77.86 26.72 78.1 25.61 78.86 26.57"/>
              <polygon class="cls-3" points="77.46 25.34 76.46 25.49 76.7 24.38 77.46 25.34"/>
            </g>
          </g>
          <g>
            <g>
              <g>
                <path class="cls-9" d="m62.02,77.76s-5.29-19.47,2.45-28.36l1.46.4.87.95,1.48.03,1.66.22s2.26,7.55-6.81,26.78c0,0-.7-.76-1.11-.03Z"/>
                <path class="cls-9" d="m65.11,77.97s3.45-19.43,13.77-23.85l1.09,1,.36,1.21,1.26.68,1.33.92s-1.16,7.62-16.88,20.54c0,0-.29-.97-.95-.51Z"/>
                <path class="cls-9" d="m66.61,80.74s9.33-13.67,19.42-12.4l.58,1.29-.1,1.12.83,1.11.81,1.34s-3.5,5.46-20.91,8.38c0,0,.08-.9-.62-.84Z"/>
                <path class="cls-9" d="m66.33,84.47s17.44-9.23,27.27-3.8l-.11,1.47-.74,1.04.24,1.42.09,1.62s-6.73,3.78-26.58-.68c0,0,.59-.83-.18-1.06Z"/>
                <path class="cls-9" d="m65.43,87.41s19.72-.64,26.18,8.55l-.75,1.28-1.12.61-.4,1.38-.63,1.5s-7.7.44-23.58-12.27c0,0,.89-.48.3-1.03Z"/>
                <path class="cls-9" d="m64.07,89.14s17.45,9.31,18.24,20.03l-1.32.67-1.28-.06-1.07.92-1.33.91s-6.91-3.48-14.04-21.78c0,0,1.03.05.8-.69Z"/>
                <path class="cls-9" d="m61.1,90.15s12.63,15.16,9.36,25.9l-1.47.19-1.16-.51-1.34.53-1.57.43s-5.08-5.8-4.82-26.14c0,0,.93.4,1-.4Z"/>
                <path class="cls-9" d="m59.27,90.4s2.76,19.54-5.69,26.94l-1.35-.61-.72-1.04-1.41-.25-1.56-.46s-1.27-7.61,9.67-24.76c0,0,.58.83,1.06.19Z"/>
                <path class="cls-9" d="m55.79,89.79s-4.74,18.34-15.61,22.38l-1.06-.96-.29-1.15-1.25-.66-1.31-.89s1.66-7.2,18.59-19.21c0,0,.24.92.94.5Z"/>
                <path class="cls-9" d="m53.83,89.31s-14.55,11.02-25.74,7.63l-.31-1.35.44-1.04-.63-1.24-.55-1.45s5.55-4.45,26.31-3.48c0,0-.34.84.48.93Z"/>
                <path class="cls-9" d="m54.9,82.98s-17.78,8.56-27.4,2.76l.17-1.47.77-1-.19-1.42-.03-1.62s6.87-3.52,26.53,1.7c0,0-.62.8.14,1.06Z"/>
                <path class="cls-9" d="m53.4,79.97s-19.73-.12-25.83-9.54l.8-1.25,1.14-.56.46-1.36.68-1.47s7.71-.15,23.09,13.16c0,0-.91.45-.35,1.02Z"/>
                <path class="cls-9" d="m57.24,77.84s-7.32-18.33-18.32-20.56l-.87,1.2-.11,1.26-1.1.92-1.12,1.17s2.68,7.23,20.69,16.69c0,0,.09-1.01.82-.69Z"/>
                <path class="cls-9" d="m58.84,77.2s-12.04-15.63-8.35-26.24l1.48-.14,1.14.55,1.35-.48,1.58-.36s4.86,5.99,3.82,26.31c0,0-.91-.44-1.02.36Z"/>
              </g>
              <g>
                <path class="cls-1" d="m62.17,77.69s-4.66-15.99,1.47-23.11l1.19.36.73.79,1.2.06,1.35.21s1.98,6.2-5.04,21.74c0,0-.58-.63-.9-.04Z"/>
                <path class="cls-1" d="m65.3,78.01s3.43-13.27,10.72-16.81l.69.61.18.8.82.39.86.54s-1.21,5.2-12.65,14.76c0,0-.14-.64-.62-.29Z"/>
                <path class="cls-1" d="m66.87,80.72s7.83-9.4,13.71-10.29l.14.65-.24.66.32.51.27.64s-2.99,3.71-13.97,8.21c0,0,.19-.53-.24-.38Z"/>
                <path class="cls-1" d="m59.78,77.67s-10.27-13.12-7.22-22l1.24-.11.97.46,1.14-.39,1.33-.3s4.14,5.03,3.39,22.05c0,0-.78-.37-.85.3Z"/>
                <path class="cls-1" d="m59,89.77s3.83,16.21-2.66,23l-1.17-.42-.69-.82-1.2-.12-1.34-.28s-1.66-6.3,6.15-21.45c0,0,.55.66.9.09Z"/>
                <path class="cls-1" d="m55.85,90.06s-6.08,14.16-11.1,14.49l-.17-1.11.16-1.06-.31-.92-.28-1.12s2.31-5.62,11.48-10.97c0,0-.13.85.24.69Z"/>
                <path class="cls-1" d="m52.73,89.35s-15.09,10.4-21.03,7.25l.44-1.27.79-.98.17-1.17.32-1.36s5.87-4.19,19.44-3.35c0,0-.63.79-.12.88Z"/>
                <path class="cls-1" d="m61.6,90.37s10.11,11.75,7.72,18.33l-1.14-.08-.92-.5-1.04.15-1.21.06s-4.06-4.53-4.2-17.85c0,0,.74.4.78-.12Z"/>
                <path class="cls-1" d="m56.72,78.77s-15.12-6.98-16.47-16.28l1.05-.67,1.07-.03.83-.87,1.05-.88s5.98,2.58,13.09,18.07c0,0-.86.03-.62.66Z"/>
                <path class="cls-1" d="m54.86,80.68s-16.64.69-22.08-6.96l.63-1.07.94-.52.34-1.15.53-1.26s6.5-.43,19.9,10.1c0,0-.75.41-.26.87Z"/>
                <path class="cls-1" d="m54.82,83.29s-14.49,8.21-22.83,3.89l.07-1.24.6-.89-.23-1.18-.1-1.36s5.58-3.35,22.32-.09c0,0-.48.71.17.89Z"/>
                <path class="cls-1" d="m67.53,83.83s11.67-3.66,17.1-1.23l-.23.62-.56.43v.6s-.12.69-.12.69c0,0-4.53,1.51-16.19-.65,0,0,.45-.34,0-.46Z"/>
                <path class="cls-1" d="m66.4,86.81s11.8,3.23,15.05,8.21l-.53.4-.7.05-.33.51-.47.51s-4.62-1.18-13.26-9.31c0,0,.56-.04.25-.38Z"/>
                <path class="cls-1" d="m65.14,89.74s8.17,9.11,8.21,15.05l-.66.05-.62-.33-.55.24-.67.18s-3.25-3.5-6.12-15.01c0,0,.5.27.41-.18Z"/>
              </g>
            </g>
            <g>
              <polygon class="cls-3" points="61.2 76.46 56.74 76.35 53.92 78.33 51.75 83.86 53.26 89.68 58.38 93.89 65.21 91.28 69.12 86.12 69.77 81.3 66.27 77.5 61.2 76.46"/>
              <polygon class="cls-4" points="61.06 76.7 57.01 76.59 54.51 78.9 52.54 83.92 53.59 89.36 57.79 93.18 65.02 91 68.34 86.01 68.92 81.63 65.72 78.16 61.06 76.7"/>
              <polygon class="cls-3" points="58.96 91.35 58.02 90.99 58.77 90.14 58.96 91.35"/>
              <polygon class="cls-3" points="56.91 90.95 56.09 90.35 57.04 89.73 56.91 90.95"/>
              <polygon class="cls-3" points="55.75 89.86 54.93 89.26 55.88 88.64 55.75 89.86"/>
              <polygon class="cls-3" points="54.73 89.42 53.91 88.82 54.86 88.2 54.73 89.42"/>
              <polygon class="cls-3" points="55.46 91.21 54.64 90.61 55.59 89.99 55.46 91.21"/>
              <polygon class="cls-3" points="56.71 91.9 55.89 91.3 56.84 90.68 56.71 91.9"/>
              <polygon class="cls-3" points="55.78 87.22 54.96 86.62 55.91 86 55.78 87.22"/>
              <polygon class="cls-3" points="57.65 88.57 56.83 87.98 57.78 87.36 57.65 88.57"/>
              <polygon class="cls-3" points="59.25 92.48 58.43 91.89 59.38 91.27 59.25 92.48"/>
              <polygon class="cls-3" points="60.53 91.75 59.54 91.55 60.14 90.59 60.53 91.75"/>
              <polygon class="cls-3" points="62.09 90.85 61.1 91.04 61.3 89.92 62.09 90.85"/>
              <polygon class="cls-3" points="63.64 90.19 62.64 90.38 62.84 89.26 63.64 90.19"/>
              <polygon class="cls-3" points="66.2 88.17 65.55 88.95 64.99 87.96 66.2 88.17"/>
              <polygon class="cls-3" points="65.14 89.98 64.32 90.56 64.04 89.46 65.14 89.98"/>
              <polygon class="cls-3" points="67.09 86.82 66.58 87.69 65.87 86.81 67.09 86.82"/>
              <polygon class="cls-3" points="66.75 85.05 66.6 86.05 65.61 85.5 66.75 85.05"/>
              <polygon class="cls-3" points="63.41 86.44 63.26 87.44 62.27 86.88 63.41 86.44"/>
              <polygon class="cls-3" points="61.59 85.96 61.44 86.97 60.45 86.41 61.59 85.96"/>
              <polygon class="cls-3" points="62.95 84.34 62.8 85.34 61.81 84.79 62.95 84.34"/>
              <polygon class="cls-3" points="66.63 83.37 66.48 84.38 65.49 83.82 66.63 83.37"/>
              <polygon class="cls-3" points="67.93 82.19 68.08 83.19 66.97 82.95 67.93 82.19"/>
              <polygon class="cls-3" points="68.58 84.19 68.46 85.19 67.45 84.66 68.58 84.19"/>
              <polygon class="cls-3" points="67.52 80.63 67.83 81.59 66.69 81.53 67.52 80.63"/>
              <polygon class="cls-3" points="66.63 79.44 67.28 80.22 66.21 80.59 66.63 79.44"/>
              <polygon class="cls-3" points="64.63 80.93 65.29 81.71 64.21 82.08 64.63 80.93"/>
              <polygon class="cls-3" points="64.64 78.67 65.29 79.45 64.21 79.82 64.64 78.67"/>
              <polygon class="cls-3" points="65.53 78.47 66.18 79.25 65.1 79.62 65.53 78.47"/>
              <polygon class="cls-3" points="63.47 77.75 64.12 78.52 63.05 78.89 63.47 77.75"/>
              <polygon class="cls-3" points="60.08 77.58 61.09 77.67 60.59 78.7 60.08 77.58"/>
              <polygon class="cls-3" points="62.42 79.28 63.43 79.37 62.92 80.39 62.42 79.28"/>
              <polygon class="cls-3" points="62.17 77.43 63.12 77.79 62.37 78.64 62.17 77.43"/>
              <polygon class="cls-3" points="58.47 77.61 59.48 77.54 59.15 78.63 58.47 77.61"/>
              <polygon class="cls-3" points="56.55 77.53 57.56 77.46 57.23 78.55 56.55 77.53"/>
              <polygon class="cls-3" points="57.2 78.89 58.11 78.45 58.21 79.58 57.2 78.89"/>
              <polygon class="cls-3" points="55.88 79.94 56.79 79.49 56.89 80.62 55.88 79.94"/>
              <polygon class="cls-3" points="54.87 79.17 55.78 78.73 55.88 79.86 54.87 79.17"/>
              <polygon class="cls-3" points="54.7 82.65 55.5 81.9 56.01 83.1 54.7 82.65"/>
              <polygon class="cls-3" points="54.04 81.1 54.84 80.35 55.35 81.55 54.04 81.1"/>
              <polygon class="cls-3" points="60.27 79.56 61.25 79.07 61.45 80.33 60.27 79.56"/>
              <polygon class="cls-3" points="53.56 83.98 54.23 83.11 54.92 84.21 53.56 83.98"/>
              <polygon class="cls-3" points="52.34 84.65 53 83.78 53.69 84.89 52.34 84.65"/>
              <polygon class="cls-3" points="54.66 84.67 55.32 83.79 56.01 84.9 54.66 84.67"/>
              <polygon class="cls-3" points="53.76 86 54.03 84.92 55.07 85.71 53.76 86"/>
              <polygon class="cls-3" points="53.71 87.88 53.98 86.8 55.02 87.59 53.71 87.88"/>
              <polygon class="cls-3" points="64.65 88.78 63.82 89.36 63.54 88.26 64.65 88.78"/>
              <polygon class="cls-3" points="62.51 88.29 61.68 88.88 61.4 87.78 62.51 88.29"/>
              <polygon class="cls-3" points="57.95 92.59 56.96 92.39 57.57 91.43 57.95 92.59"/>
              <polygon class="cls-3" points="59.49 89.63 58.5 89.43 59.11 88.47 59.49 89.63"/>
              <polygon class="cls-3" points="60.76 86 59.77 85.8 60.38 84.84 60.76 86"/>
              <polygon class="cls-3" points="60.79 89.2 59.8 89 60.41 88.04 60.79 89.2"/>
              <polygon class="cls-3" points="59.9 87.57 58.91 87.37 59.51 86.41 59.9 87.57"/>
            </g>
          </g>
          <g>
            <g>
              <g>
                <path class="cls-9" d="m28.87,91.26s-5.29-19.47,2.45-28.36l1.46.4.87.95,1.48.03,1.66.22s2.26,7.55-6.81,26.78c0,0-.7-.76-1.11-.03Z"/>
                <path class="cls-9" d="m31.96,91.48s3.45-19.43,13.77-23.85l1.09,1,.36,1.21,1.26.68,1.33.92s-1.16,7.62-16.88,20.54c0,0-.29-.97-.95-.51Z"/>
                <path class="cls-9" d="m33.46,94.25s9.33-13.67,19.42-12.4l.58,1.29-.1,1.12.83,1.11.81,1.34s-3.5,5.46-20.91,8.38c0,0,.08-.9-.62-.84Z"/>
                <path class="cls-9" d="m33.18,97.98s17.44-9.23,27.27-3.8l-.11,1.47-.74,1.04.24,1.42.09,1.62s-6.73,3.78-26.58-.68c0,0,.59-.83-.18-1.06Z"/>
                <path class="cls-9" d="m32.28,100.92s19.72-.64,26.18,8.55l-.75,1.28-1.12.61-.4,1.38-.63,1.5s-7.7.44-23.58-12.27c0,0,.89-.48.3-1.03Z"/>
                <path class="cls-9" d="m30.92,102.64s17.45,9.31,18.24,20.03l-1.32.67-1.28-.06-1.07.92-1.33.91s-6.91-3.48-14.04-21.78c0,0,1.03.05.8-.69Z"/>
                <path class="cls-9" d="m27.96,103.66s12.63,15.16,9.35,25.9l-1.47.19-1.16-.51-1.33.53-1.57.43s-5.08-5.8-4.82-26.14c0,0,.93.4,1-.4Z"/>
                <path class="cls-9" d="m26.13,103.91s2.76,19.54-5.69,26.94l-1.35-.61-.72-1.04-1.41-.25-1.56-.46s-1.27-7.61,9.67-24.76c0,0,.58.83,1.06.19Z"/>
                <path class="cls-9" d="m22.64,103.29s-4.74,18.34-15.61,22.38l-1.06-.96-.3-1.15-1.25-.66-1.31-.89s1.66-7.2,18.59-19.21c0,0,.24.92.94.5Z"/>
                <path class="cls-9" d="m20.68,102.82s-14.55,11.02-25.74,7.63l-.31-1.35.44-1.05-.63-1.24-.55-1.45s5.55-4.45,26.31-3.48c0,0-.34.84.48.93Z"/>
                <path class="cls-9" d="m21.75,96.48s-17.78,8.56-27.4,2.76l.17-1.47.77-1-.19-1.42-.03-1.62s6.86-3.52,26.53,1.7c0,0-.62.8.14,1.06Z"/>
                <path class="cls-9" d="m20.25,93.48s-19.73-.12-25.83-9.54l.8-1.25,1.14-.56.46-1.36.68-1.47s7.71-.15,23.09,13.16c0,0-.91.45-.35,1.02Z"/>
                <path class="cls-9" d="m24.09,91.35s-7.32-18.33-18.32-20.56l-.87,1.2-.11,1.26-1.1.92-1.12,1.17s2.68,7.23,20.69,16.69c0,0,.09-1.01.82-.69Z"/>
                <path class="cls-9" d="m25.7,90.71s-12.04-15.63-8.35-26.24l1.48-.14,1.14.55,1.35-.48,1.58-.36s4.86,5.99,3.82,26.31c0,0-.91-.44-1.01.36Z"/>
              </g>
              <g>
                <path class="cls-1" d="m29.02,91.19s-4.66-15.99,1.47-23.11l1.19.36.73.79,1.21.06,1.35.21s1.98,6.2-5.05,21.74c0,0-.58-.63-.9-.04Z"/>
                <path class="cls-1" d="m32.16,91.52s3.43-13.27,10.72-16.81l.69.61.18.8.83.39.86.54s-1.21,5.2-12.65,14.76c0,0-.14-.64-.62-.29Z"/>
                <path class="cls-1" d="m33.72,94.23s7.83-9.4,13.71-10.29l.14.65-.24.66.32.51.27.64s-2.99,3.71-13.97,8.21c0,0,.19-.53-.24-.38Z"/>
                <path class="cls-1" d="m26.64,91.17s-10.27-13.12-7.22-22l1.24-.11.97.46,1.14-.39,1.33-.3s4.14,5.03,3.39,22.05c0,0-.78-.37-.85.3Z"/>
                <path class="cls-1" d="m25.86,103.28s3.83,16.21-2.66,23l-1.17-.42-.69-.82-1.2-.12-1.34-.28s-1.66-6.3,6.15-21.45c0,0,.55.66.9.09Z"/>
                <path class="cls-1" d="m22.7,103.56s-6.08,14.16-11.1,14.49l-.17-1.11.16-1.06-.31-.92-.28-1.12s2.31-5.62,11.48-10.97c0,0-.13.85.24.69Z"/>
                <path class="cls-1" d="m19.58,102.86s-15.09,10.4-21.03,7.25l.44-1.27.79-.98.17-1.17.32-1.36s5.87-4.19,19.44-3.35c0,0-.63.79-.12.88Z"/>
                <path class="cls-1" d="m28.46,103.88s10.11,11.75,7.72,18.33l-1.14-.08-.92-.5-1.03.15-1.21.06s-4.06-4.53-4.2-17.85c0,0,.74.4.78-.12Z"/>
                <path class="cls-1" d="m23.57,92.28s-15.12-6.98-16.47-16.28l1.05-.67,1.07-.03.83-.87,1.05-.88s5.98,2.58,13.09,18.07c0,0-.86.03-.62.66Z"/>
                <path class="cls-1" d="m21.71,94.19s-16.64.69-22.08-6.96l.63-1.07.94-.52.34-1.15.53-1.26s6.5-.43,19.9,10.1c0,0-.75.41-.26.87Z"/>
                <path class="cls-1" d="m21.68,96.8s-14.49,8.21-22.83,3.89l.07-1.24.6-.89-.23-1.18-.1-1.36s5.58-3.35,22.31-.09c0,0-.48.71.17.89Z"/>
                <path class="cls-1" d="m34.38,97.34s11.67-3.66,17.1-1.23l-.23.62-.56.43v.6s-.12.69-.12.69c0,0-4.53,1.51-16.19-.65,0,0,.45-.34,0-.46Z"/>
                <path class="cls-1" d="m33.25,100.32s11.8,3.23,15.05,8.21l-.53.4-.7.05-.33.51-.47.51s-4.62-1.18-13.26-9.31c0,0,.56-.04.25-.38Z"/>
                <path class="cls-1" d="m32,103.24s8.17,9.11,8.21,15.05l-.66.05-.62-.33-.55.24-.67.18s-3.25-3.5-6.12-15.01c0,0,.5.27.41-.18Z"/>
              </g>
            </g>
            <g>
              <polygon class="cls-3" points="28.05 89.96 23.59 89.86 20.78 91.84 18.6 97.37 20.12 103.19 25.23 107.4 32.06 104.79 35.97 99.62 36.62 94.8 33.12 91.01 28.05 89.96"/>
              <polygon class="cls-4" points="27.92 90.2 23.86 90.1 21.36 92.41 19.39 97.43 20.45 102.86 24.64 106.69 31.87 104.51 35.19 99.52 35.77 95.14 32.58 91.67 27.92 90.2"/>
              <polygon class="cls-3" points="25.82 104.86 24.87 104.5 25.62 103.65 25.82 104.86"/>
              <polygon class="cls-3" points="23.76 104.45 22.94 103.86 23.89 103.24 23.76 104.45"/>
              <polygon class="cls-3" points="22.61 103.37 21.79 102.77 22.74 102.15 22.61 103.37"/>
              <polygon class="cls-3" points="21.58 102.92 20.76 102.33 21.71 101.71 21.58 102.92"/>
              <polygon class="cls-3" points="22.31 104.71 21.49 104.12 22.44 103.5 22.31 104.71"/>
              <polygon class="cls-3" points="23.56 105.41 22.75 104.81 23.7 104.19 23.56 105.41"/>
              <polygon class="cls-3" points="22.63 100.72 21.81 100.13 22.76 99.51 22.63 100.72"/>
              <polygon class="cls-3" points="24.5 102.08 23.68 101.49 24.63 100.87 24.5 102.08"/>
              <polygon class="cls-3" points="26.1 105.99 25.29 105.39 26.24 104.77 26.1 105.99"/>
              <polygon class="cls-3" points="27.38 105.26 26.39 105.06 27 104.1 27.38 105.26"/>
              <polygon class="cls-3" points="28.94 104.36 27.95 104.54 28.15 103.43 28.94 104.36"/>
              <polygon class="cls-3" points="30.49 103.7 29.5 103.89 29.7 102.77 30.49 103.7"/>
              <polygon class="cls-3" points="33.05 101.68 32.41 102.46 31.85 101.47 33.05 101.68"/>
              <polygon class="cls-3" points="32 103.49 31.17 104.07 30.89 102.96 32 103.49"/>
              <polygon class="cls-3" points="33.94 100.33 33.43 101.2 32.72 100.32 33.94 100.33"/>
              <polygon class="cls-3" points="33.6 98.56 33.45 99.56 32.46 99.01 33.6 98.56"/>
              <polygon class="cls-3" points="30.26 99.95 30.11 100.95 29.12 100.39 30.26 99.95"/>
              <polygon class="cls-3" points="28.44 99.47 28.29 100.47 27.3 99.92 28.44 99.47"/>
              <polygon class="cls-3" points="29.8 97.85 29.66 98.85 28.67 98.3 29.8 97.85"/>
              <polygon class="cls-3" points="33.48 96.88 33.34 97.88 32.34 97.33 33.48 96.88"/>
              <polygon class="cls-3" points="34.78 95.7 34.93 96.7 33.82 96.46 34.78 95.7"/>
              <polygon class="cls-3" points="35.43 97.69 35.31 98.7 34.3 98.17 35.43 97.69"/>
              <polygon class="cls-3" points="34.37 94.14 34.68 95.1 33.54 95.04 34.37 94.14"/>
              <polygon class="cls-3" points="33.49 92.95 34.13 93.72 33.06 94.09 33.49 92.95"/>
              <polygon class="cls-3" points="31.49 94.44 32.14 95.22 31.06 95.59 31.49 94.44"/>
              <polygon class="cls-3" points="31.49 92.18 32.14 92.96 31.07 93.33 31.49 92.18"/>
              <polygon class="cls-3" points="32.38 91.97 33.03 92.76 31.95 93.12 32.38 91.97"/>
              <polygon class="cls-3" points="30.33 91.26 30.98 92.03 29.9 92.4 30.33 91.26"/>
              <polygon class="cls-3" points="26.94 91.09 27.94 91.18 27.44 92.2 26.94 91.09"/>
              <polygon class="cls-3" points="29.27 92.79 30.28 92.88 29.78 93.9 29.27 92.79"/>
              <polygon class="cls-3" points="29.03 90.94 29.97 91.3 29.22 92.15 29.03 90.94"/>
              <polygon class="cls-3" points="25.32 91.12 26.33 91.05 26 92.13 25.32 91.12"/>
              <polygon class="cls-3" points="23.4 91.04 24.41 90.97 24.08 92.06 23.4 91.04"/>
              <polygon class="cls-3" points="24.05 92.4 24.96 91.96 25.07 93.09 24.05 92.4"/>
              <polygon class="cls-3" points="22.73 93.44 23.64 93 23.75 94.13 22.73 93.44"/>
              <polygon class="cls-3" points="21.72 92.68 22.63 92.24 22.74 93.37 21.72 92.68"/>
              <polygon class="cls-3" points="21.55 96.15 22.35 95.41 22.86 96.6 21.55 96.15"/>
              <polygon class="cls-3" points="20.89 94.61 21.69 93.86 22.2 95.05 20.89 94.61"/>
              <polygon class="cls-3" points="27.12 93.07 28.11 92.58 28.3 93.84 27.12 93.07"/>
              <polygon class="cls-3" points="20.42 97.49 21.08 96.62 21.77 97.72 20.42 97.49"/>
              <polygon class="cls-3" points="19.19 98.16 19.85 97.29 20.55 98.39 19.19 98.16"/>
              <polygon class="cls-3" points="21.51 98.17 22.17 97.3 22.87 98.41 21.51 98.17"/>
              <polygon class="cls-3" points="20.61 99.51 20.88 98.43 21.92 99.22 20.61 99.51"/>
              <polygon class="cls-3" points="20.57 101.39 20.84 100.3 21.88 101.1 20.57 101.39"/>
              <polygon class="cls-3" points="31.5 102.29 30.68 102.87 30.4 101.77 31.5 102.29"/>
              <polygon class="cls-3" points="29.36 101.8 28.54 102.38 28.25 101.28 29.36 101.8"/>
              <polygon class="cls-3" points="24.8 106.1 23.81 105.9 24.42 104.94 24.8 106.1"/>
              <polygon class="cls-3" points="26.35 103.14 25.36 102.94 25.96 101.98 26.35 103.14"/>
              <polygon class="cls-3" points="27.61 99.51 26.62 99.31 27.23 98.35 27.61 99.51"/>
              <polygon class="cls-3" points="27.65 102.71 26.65 102.51 27.26 101.55 27.65 102.71"/>
              <polygon class="cls-3" points="26.75 101.07 25.76 100.87 26.37 99.91 26.75 101.07"/>
            </g>
          </g>
        </g>
        <g>
          <g>
            <path class="cls-9" d="m-17.59,16.62S-13.52.58-3.62-1.7l.99,1.01.29,1.09,1.16.76L.04,2.13s-1.41,6.33-16.76,15.06c0,0-.23-.87-.87-.57Z"/>
            <path class="cls-9" d="m-16.57,20.22S-3.36,5.56,7.74,7.28l.4,1.42-.34,1.22.71,1.25.64,1.49s-5.02,5.86-25.19,8.5c0,0,.27-.98-.54-.93Z"/>
            <path class="cls-9" d="m-16.4,23.29s18.3-7.38,27.52-.97l-.27,1.46-.84.95.09,1.43-.07,1.62s-7.08,3.06-26.36-3.42c0,0,.67-.76-.07-1.07Z"/>
            <path class="cls-9" d="m-17.08,25.38s19.58,2.74,24.01,12.54l-1.01,1.08-1.23.38-.69,1.24-.94,1.31s-7.69-.89-20.67-15.62c0,0,.98-.31.52-.93Z"/>
          </g>
          <path class="cls-1" d="m-15.7,22.39s12.19-1.02,16.96,2.54l-.36.56-.64.29-.14.59-.27.64s-4.74.48-15.65-4.18c0,0,.52-.24.11-.44Z"/>
        </g>
        <g>
          <g>
            <path class="cls-9" d="m119.68,3.82s-14.55,11.02-25.74,7.63l-.31-1.35.44-1.04-.63-1.24-.55-1.45s5.55-4.45,26.31-3.48c0,0-.34.84.48.93Z"/>
            <path class="cls-9" d="m120.75-2.52S102.97,6.04,93.35.24l.17-1.47.77-1-.19-1.42-.03-1.62s6.86-3.52,26.53,1.7c0,0-.62.8.14,1.06Z"/>
          </g>
          <g>
            <path class="cls-1" d="m118.58,3.86s-15.09,10.4-21.03,7.25l.44-1.27.79-.98.17-1.17.32-1.36s5.87-4.19,19.44-3.35c0,0-.63.79-.12.87Z"/>
            <path class="cls-1" d="m120.68-2.2s-14.49,8.21-22.83,3.89l.07-1.24.6-.89-.23-1.18-.1-1.36s5.58-3.35,22.31-.09c0,0-.48.71.17.89Z"/>
          </g>
        </g>
        <g>
          <g>
            <g>
              <path class="cls-9" d="m65.43-11.59s19.72-.64,26.18,8.55l-.75,1.28-1.12.61-.4,1.37-.63,1.5s-7.7.44-23.58-12.27c0,0,.89-.48.3-1.03Z"/>
              <path class="cls-9" d="m64.07-9.86S81.52-.55,82.31,10.17l-1.32.67-1.28-.06-1.07.92-1.33.91s-6.91-3.48-14.04-21.78c0,0,1.03.05.8-.69Z"/>
              <path class="cls-9" d="m61.1-8.85s12.63,15.16,9.36,25.9l-1.47.19-1.16-.51-1.34.53-1.57.43s-5.08-5.8-4.82-26.14c0,0,.93.4,1-.4Z"/>
              <path class="cls-9" d="m59.27-8.6s2.76,19.54-5.69,26.94l-1.35-.61-.72-1.04-1.41-.25-1.56-.46s-1.27-7.61,9.67-24.76c0,0,.58.83,1.06.19Z"/>
              <path class="cls-9" d="m55.79-9.21s-4.74,18.34-15.61,22.38l-1.06-.96-.29-1.15-1.25-.66-1.31-.89s1.66-7.2,18.59-19.21c0,0,.24.92.94.5Z"/>
            </g>
            <g>
              <path class="cls-1" d="m59-9.23s3.83,16.21-2.66,23l-1.17-.42-.69-.82-1.2-.12-1.34-.28s-1.66-6.3,6.15-21.45c0,0,.55.66.9.09Z"/>
              <path class="cls-1" d="m55.85-8.94s-6.08,14.16-11.1,14.49l-.17-1.11.16-1.06-.31-.92-.28-1.12s2.31-5.62,11.48-10.97c0,0-.13.85.24.69Z"/>
              <path class="cls-1" d="m61.6-8.63s10.11,11.75,7.72,18.33l-1.14-.08-.92-.5-1.04.15-1.21.06s-4.06-4.53-4.2-17.85c0,0,.74.4.78-.12Z"/>
              <path class="cls-1" d="m65.14-9.26S73.32-.16,73.35,5.79l-.66.05-.62-.33-.55.24-.67.18s-3.25-3.5-6.12-15.01c0,0,.5.27.41-.18Z"/>
            </g>
          </g>
          <g>
            <g>
              <g>
                <path class="cls-9" d="m33.18-1.02s17.44-9.23,27.27-3.8l-.11,1.47-.74,1.04.24,1.42.09,1.62s-6.73,3.78-26.58-.68c0,0,.59-.83-.18-1.06Z"/>
                <path class="cls-9" d="m32.28,1.92s19.72-.64,26.18,8.55l-.75,1.28-1.12.61-.4,1.37-.63,1.5s-7.7.44-23.58-12.27c0,0,.89-.48.3-1.03Z"/>
                <path class="cls-9" d="m30.92,3.64s17.45,9.31,18.24,20.03l-1.32.67-1.28-.06-1.07.92-1.33.91s-6.91-3.48-14.04-21.78c0,0,1.03.05.8-.69Z"/>
                <path class="cls-9" d="m27.96,4.66s12.63,15.16,9.35,25.9l-1.47.19-1.16-.51-1.33.53-1.57.43s-5.08-5.8-4.82-26.14c0,0,.93.4,1-.4Z"/>
                <path class="cls-9" d="m26.13,4.91s2.76,19.54-5.69,26.94l-1.35-.61-.72-1.04-1.41-.25-1.56-.46s-1.27-7.61,9.67-24.76c0,0,.58.83,1.06.19Z"/>
                <path class="cls-9" d="m22.64,4.29s-4.74,18.34-15.61,22.38l-1.06-.96-.3-1.15-1.25-.66-1.31-.89s1.66-7.2,18.59-19.21c0,0,.24.92.94.5Z"/>
                <path class="cls-9" d="m20.68,3.82S6.13,14.83-5.06,11.45l-.31-1.35.44-1.04-.63-1.24-.55-1.45S-.56,1.92,20.21,2.89c0,0-.34.84.48.93Z"/>
                <path class="cls-9" d="m21.75-2.52S3.97,6.04-5.65.24l.17-1.47.77-1-.19-1.42-.03-1.62s6.86-3.52,26.53,1.7c0,0-.62.8.14,1.06Z"/>
              </g>
              <g>
                <path class="cls-1" d="m25.86,4.28s3.83,16.21-2.66,23l-1.17-.42-.69-.82-1.2-.12-1.34-.28s-1.66-6.3,6.15-21.45c0,0,.55.66.9.09Z"/>
                <path class="cls-1" d="m22.7,4.56s-6.08,14.16-11.1,14.49l-.17-1.11.16-1.06-.31-.92-.28-1.12s2.31-5.62,11.48-10.97c0,0-.13.85.24.69Z"/>
                <path class="cls-1" d="m19.58,3.86S4.5,14.26-1.45,11.11l.44-1.27.79-.98.17-1.17.32-1.36S6.14,2.14,19.71,2.99c0,0-.63.79-.12.87Z"/>
                <path class="cls-1" d="m28.46,4.88s10.11,11.75,7.72,18.33l-1.14-.08-.92-.5-1.03.15-1.21.06s-4.06-4.53-4.2-17.85c0,0,.74.4.78-.12Z"/>
                <path class="cls-1" d="m21.68-2.2S7.19,6.02-1.15,1.69l.07-1.24L-.48-.45l-.23-1.18-.1-1.36s5.58-3.35,22.31-.09c0,0-.48.71.17.89Z"/>
                <path class="cls-1" d="m33.25,1.32s11.8,3.23,15.05,8.21l-.53.4-.7.05-.33.51-.47.51s-4.62-1.18-13.26-9.31c0,0,.56-.04.25-.38Z"/>
                <path class="cls-1" d="m32,4.24s8.17,9.11,8.21,15.05l-.66.05-.62-.33-.55.24-.67.18s-3.25-3.5-6.12-15.01c0,0,.5.27.41-.18Z"/>
              </g>
            </g>
            <g>
              <polygon class="cls-3" points="28.05 -9.04 23.59 -9.14 20.78 -7.16 18.6 -1.63 20.12 4.19 25.23 8.4 32.06 5.79 35.97 .62 36.62 -4.2 33.12 -7.99 28.05 -9.04"/>
              <polygon class="cls-4" points="27.92 -8.8 23.86 -8.9 21.36 -6.59 19.39 -1.57 20.45 3.86 24.64 7.69 31.87 5.51 35.19 .52 35.77 -3.86 32.58 -7.33 27.92 -8.8"/>
              <polygon class="cls-3" points="25.82 5.86 24.87 5.5 25.62 4.65 25.82 5.86"/>
              <polygon class="cls-3" points="23.76 5.45 22.94 4.86 23.89 4.24 23.76 5.45"/>
              <polygon class="cls-3" points="22.61 4.37 21.79 3.77 22.74 3.15 22.61 4.37"/>
              <polygon class="cls-3" points="21.58 3.92 20.76 3.33 21.71 2.71 21.58 3.92"/>
              <polygon class="cls-3" points="22.31 5.71 21.49 5.12 22.44 4.5 22.31 5.71"/>
              <polygon class="cls-3" points="23.56 6.41 22.75 5.81 23.7 5.19 23.56 6.41"/>
              <polygon class="cls-3" points="22.63 1.72 21.81 1.13 22.76 .51 22.63 1.72"/>
              <polygon class="cls-3" points="24.5 3.08 23.68 2.49 24.63 1.87 24.5 3.08"/>
              <polygon class="cls-3" points="26.1 6.99 25.29 6.39 26.24 5.77 26.1 6.99"/>
              <polygon class="cls-3" points="27.38 6.26 26.39 6.06 27 5.1 27.38 6.26"/>
              <polygon class="cls-3" points="28.94 5.36 27.95 5.54 28.15 4.43 28.94 5.36"/>
              <polygon class="cls-3" points="30.49 4.7 29.5 4.89 29.7 3.77 30.49 4.7"/>
              <polygon class="cls-3" points="33.05 2.68 32.41 3.46 31.85 2.47 33.05 2.68"/>
              <polygon class="cls-3" points="32 4.49 31.17 5.07 30.89 3.96 32 4.49"/>
              <polygon class="cls-3" points="33.94 1.33 33.43 2.2 32.72 1.32 33.94 1.33"/>
              <polygon class="cls-3" points="33.6 -.44 33.45 .56 32.46 0 33.6 -.44"/>
              <polygon class="cls-3" points="30.26 .95 30.11 1.95 29.12 1.39 30.26 .95"/>
              <polygon class="cls-3" points="28.44 .47 28.29 1.47 27.3 .92 28.44 .47"/>
              <polygon class="cls-3" points="20.61 .51 20.88 -.57 21.92 .22 20.61 .51"/>
              <polygon class="cls-3" points="20.57 2.39 20.84 1.3 21.88 2.1 20.57 2.39"/>
              <polygon class="cls-3" points="31.5 3.29 30.68 3.87 30.4 2.77 31.5 3.29"/>
              <polygon class="cls-3" points="29.36 2.8 28.54 3.38 28.25 2.28 29.36 2.8"/>
              <polygon class="cls-3" points="24.8 7.1 23.81 6.9 24.42 5.94 24.8 7.1"/>
              <polygon class="cls-3" points="26.35 4.14 25.36 3.94 25.96 2.98 26.35 4.14"/>
              <polygon class="cls-3" points="27.61 .51 26.62 .31 27.23 -.65 27.61 .51"/>
              <polygon class="cls-3" points="27.65 3.71 26.65 3.51 27.26 2.55 27.65 3.71"/>
              <polygon class="cls-3" points="26.75 2.07 25.76 1.87 26.37 .91 26.75 2.07"/>
            </g>
          </g>
        </g>
      </g>
    </pattern>
  </defs>
  <g id="Layer_1-2" data-name="Layer 1">
    <g>
      <circle class="cls-6" cx="46.5" cy="46.5" r="45"/>
      <g>
        <circle class="cls-5" cx="46.5" cy="46.5" r="45"/>
        <circle class="cls-2" cx="46.5" cy="46.5" r="35"/>
      </g>
    </g>
  </g>
</svg>