<?xml version="1.0" encoding="UTF-8"?>
<svg id="Layer_2" data-name="Layer 2" xmlns="http://www.w3.org/2000/svg" xmlns:xlink="http://www.w3.org/1999/xlink" viewBox="0 0 93 93">
  <defs>
    <style>
      .cls-1 {
        opacity: .54;
      }

      .cls-2 {
        fill: #39b54a;
      }

      .cls-3 {
        fill: #231f20;
        opacity: .31;
      }

      .cls-3, .cls-4 {
        stroke: #231f20;
        stroke-miterlimit: 10;
        stroke-width: 3px;
      }

      .cls-5 {
        fill: none;
      }

      .cls-4 {
        fill: url(#Grassy);
      }

      .cls-6 {
        fill: #00a651;
      }

      .cls-7 {
        fill: #fff;
        opacity: .65;
      }
    </style>
    <pattern id="Grassy" x="0" y="0" width="77.37" height="106.81" patternTransform="translate(-124.19 -324.78)" patternUnits="userSpaceOnUse" viewBox="0 0 77.37 106.81">
      <g>
        <rect class="cls-5" x="0" width="77.37" height="106.81"/>
        <path class="cls-2" d="m40.39,99.52c.59-1.43,76.44,67.56,69.54,105.22-1.62,8.87-7.4,13.62-10.96,15.94-2-10.53-5.05-23.83-9.83-38.26-19.22-58.03-49.12-82.01-48.76-82.9Z"/>
        <path class="cls-2" d="m-36.98,99.52c.59-1.43,76.44,67.56,69.54,105.22-1.62,8.87-7.4,13.62-10.96,15.94-2-10.53-5.05-23.83-9.83-38.26C-7.45,124.39-37.34,100.4-36.98,99.52Z"/>
        <g>
          <path class="cls-6" d="m16.33,21.83C7.87,38.26,4.43,59.43,3.31,66.35.68,82.58,1.6,89.86.05,105.68c0,0-.1,1.04,0,1.13.45.4,2.97-27.16,11.83-46.15,1.58-3.4,2.82-5.34,4.8-8.45,9.7-15.23,15.16-14.13,21.86-24.05,2.99-4.43,7.12-12.38,10.79-27.46-3.65-.97-19.87-4.37-32.99,21.12Z"/>
          <path class="cls-6" d="m72.28,49.7c9.61-15.46,9.85-27.14,9.93-30.96.18-8.96-3.15-10.65-4.63-18.27,0,0-.1-.5-.27-.43-.84.35,2.03,13.4-7.59,30.26-1.72,3.01-3.24,5.1-5.68,8.45-11.93,16.38-21.1,22-29.49,33.08-3.75,4.95-8.45,12.47-10.62,22.14,6.18-3.66,33.44-20.29,48.35-44.28Z"/>
          <path class="cls-2" d="m1.7,34.64c.59-.85,76.44,40.04,69.54,62.36-1.62,5.26-7.4,8.07-10.96,9.45-2-6.24-5.05-14.13-9.83-22.68C31.23,49.38,1.34,35.16,1.7,34.64Z"/>
          <path class="cls-2" d="m40.39-7.29c.59-1.43,76.44,67.56,69.54,105.22-1.62,8.87-7.4,13.62-10.96,15.94-2-10.53-5.05-23.83-9.83-38.26C69.92,17.57,40.02-6.41,40.39-7.29Z"/>
        </g>
        <g>
          <path class="cls-6" d="m-5.09,49.7C4.52,34.24,4.76,22.55,4.84,18.74,5.02,9.78,1.68,8.09.21.47c0,0-.1-.5-.27-.43C-.91.4,1.96,13.45-7.66,30.31c-1.72,3.01-3.24,5.1-5.68,8.45-11.93,16.38-21.1,22-29.49,33.08-3.75,4.95-8.45,12.47-10.62,22.14,6.18-3.66,33.44-20.29,48.35-44.28Z"/>
          <path class="cls-2" d="m-36.98-7.29c.59-1.43,76.44,67.56,69.54,105.22-1.62,8.87-7.4,13.62-10.96,15.94-2-10.53-5.05-23.83-9.83-38.26C-7.45,17.57-37.34-6.41-36.98-7.29Z"/>
        </g>
        <path class="cls-2" d="m40.39-114.1c.59-1.43,76.44,67.56,69.54,105.22-1.62,8.87-7.4,13.62-10.96,15.94-2-10.53-5.05-23.83-9.83-38.26-19.22-58.03-49.12-82.01-48.76-82.9Z"/>
        <path class="cls-2" d="m-36.98-114.1c.59-1.43,76.44,67.56,69.54,105.22C30.94-.02,25.16,4.74,21.6,7.06c-2-10.53-5.05-23.83-9.83-38.26C-7.45-89.24-37.34-113.22-36.98-114.1Z"/>
      </g>
    </pattern>
  </defs>
  <g id="Layer_1-2" data-name="Layer 1">
    <g>
      <circle class="cls-4" cx="46.5" cy="46.5" r="45"/>
      <g class="cls-1">
        <circle class="cls-3" cx="46.5" cy="46.5" r="45"/>
        <circle class="cls-7" cx="46.5" cy="46.5" r="35"/>
      </g>
    </g>
  </g>
</svg>